<svg width="20" height="21" viewBox="0 0 20 21" fill="none" xmlns="http://www.w3.org/2000/svg">
<path d="M16.25 3.625H14.375V3C14.375 2.83424 14.3092 2.67527 14.1919 2.55806C14.0747 2.44085 13.9158 2.375 13.75 2.375C13.5842 2.375 13.4253 2.44085 13.3081 2.55806C13.1908 2.67527 13.125 2.83424 13.125 3V3.625H6.875V3C6.875 2.83424 6.80915 2.67527 6.69194 2.55806C6.57473 2.44085 6.41576 2.375 6.25 2.375C6.08424 2.375 5.92527 2.44085 5.80806 2.55806C5.69085 2.67527 5.625 2.83424 5.625 3V3.625H3.75C3.41848 3.625 3.10054 3.7567 2.86612 3.99112C2.6317 4.22554 2.5 4.54348 2.5 4.875V17.375C2.5 17.7065 2.6317 18.0245 2.86612 18.2589C3.10054 18.4933 3.41848 18.625 3.75 18.625H16.25C16.5815 18.625 16.8995 18.4933 17.1339 18.2589C17.3683 18.0245 17.5 17.7065 17.5 17.375V4.875C17.5 4.54348 17.3683 4.22554 17.1339 3.99112C16.8995 3.7567 16.5815 3.625 16.25 3.625ZM5.625 4.875V5.5C5.625 5.66576 5.69085 5.82473 5.80806 5.94194C5.92527 6.05915 6.08424 6.125 6.25 6.125C6.41576 6.125 6.57473 6.05915 6.69194 5.94194C6.80915 5.82473 6.875 5.66576 6.875 5.5V4.875H13.125V5.5C13.125 5.66576 13.1908 5.82473 13.3081 5.94194C13.4253 6.05915 13.5842 6.125 13.75 6.125C13.9158 6.125 14.0747 6.05915 14.1919 5.94194C14.3092 5.82473 14.375 5.66576 14.375 5.5V4.875H16.25V7.375H3.75V4.875H5.625ZM16.25 17.375H3.75V8.625H16.25V17.375Z" fill="#202939"/>
</svg>
