<svg width="32" height="32" viewBox="0 0 32 32" fill="none" xmlns="http://www.w3.org/2000/svg">
<path d="M27.0674 12.0668L17.0664 22.0687C16.927 22.2086 16.7614 22.3196 16.579 22.3953C16.3967 22.471 16.2012 22.51 16.0037 22.51C15.8063 22.51 15.6108 22.471 15.4285 22.3953C15.2461 22.3196 15.0805 22.2086 14.9411 22.0687L4.94015 12.0668C4.65833 11.785 4.5 11.4027 4.5 11.0041C4.5 10.6055 4.65833 10.2233 4.94015 9.94144C5.22197 9.65959 5.6042 9.50125 6.00275 9.50125C6.40131 9.50125 6.78354 9.65959 7.06536 9.94144L16.005 18.8819L24.9446 9.94019C25.2265 9.65834 25.6087 9.5 26.0072 9.5C26.4058 9.5 26.788 9.65834 27.0699 9.94019C27.3517 10.222 27.51 10.6043 27.51 11.0029C27.51 11.4015 27.3517 11.7837 27.0699 12.0656L27.0674 12.0668Z" fill="#343330"/>
</svg>
