<svg width="21" height="20" viewBox="0 0 21 20" fill="none" xmlns="http://www.w3.org/2000/svg">
<path d="M16.9423 7.94205L10.6923 14.192C10.6342 14.2502 10.5653 14.2963 10.4894 14.3277C10.4136 14.3592 10.3322 14.3754 10.2501 14.3754C10.168 14.3754 10.0866 14.3592 10.0108 14.3277C9.93489 14.2963 9.86596 14.2502 9.80792 14.192L3.55792 7.94205C3.44064 7.82477 3.37476 7.66571 3.37476 7.49986C3.37476 7.33401 3.44064 7.17495 3.55792 7.05767C3.67519 6.9404 3.83425 6.87451 4.0001 6.87451C4.16596 6.87451 4.32502 6.9404 4.44229 7.05767L10.2501 12.8663L16.0579 7.05767C16.116 6.9996 16.1849 6.95354 16.2608 6.92211C16.3367 6.89069 16.418 6.87451 16.5001 6.87451C16.5822 6.87451 16.6635 6.89069 16.7394 6.92211C16.8153 6.95354 16.8842 6.9996 16.9423 7.05767C17.0004 7.11574 17.0464 7.18468 17.0778 7.26055C17.1093 7.33642 17.1255 7.41774 17.1255 7.49986C17.1255 7.58198 17.1093 7.6633 17.0778 7.73917C17.0464 7.81504 17.0004 7.88398 16.9423 7.94205Z" fill="#CB3A31"/>
</svg>
