<svg width="32" height="33" viewBox="0 0 32 33" fill="none" xmlns="http://www.w3.org/2000/svg">
<path d="M28 9.75219V16.895H25.6V9.75219M25.6 19.276H28V21.6569H25.6M14.8 3.7998C14.1635 3.7998 13.553 4.05065 13.1029 4.49717C12.6529 4.94368 12.4 5.54929 12.4 6.18076C12.3916 6.29568 12.3916 6.41107 12.4 6.526C8.944 7.5379 6.4 10.7284 6.4 14.5141V21.6569L4 24.0379V25.2284H25.6V24.0379L23.2 21.6569V14.5141C23.2 10.7284 20.656 7.5379 17.2 6.526C17.2084 6.41107 17.2084 6.29568 17.2 6.18076C17.2 5.54929 16.9471 4.94368 16.4971 4.49717C16.047 4.05065 15.4365 3.7998 14.8 3.7998ZM12.4 26.4189C12.4 27.0503 12.6529 27.6559 13.1029 28.1024C13.553 28.549 14.1635 28.7998 14.8 28.7998C15.4365 28.7998 16.047 28.549 16.4971 28.1024C16.9471 27.6559 17.2 27.0503 17.2 26.4189H12.4Z" fill="#CB3A31"/>
</svg>
