<svg width="32" height="33" viewBox="0 0 32 33" fill="none" xmlns="http://www.w3.org/2000/svg">
<path d="M29 26.5C29 26.7652 28.8946 27.0196 28.7071 27.2071C28.5196 27.3946 28.2652 27.5 28 27.5H4C3.73478 27.5 3.48043 27.3946 3.29289 27.2071C3.10536 27.0196 3 26.7652 3 26.5C3 26.2348 3.10536 25.9804 3.29289 25.7929C3.48043 25.6054 3.73478 25.5 4 25.5H5V17.5C5 17.2348 5.10536 16.9804 5.29289 16.7929C5.48043 16.6054 5.73478 16.5 6 16.5H9C9.26522 16.5 9.51957 16.6054 9.70711 16.7929C9.89464 16.9804 10 17.2348 10 17.5V25.5H12V11.5C12 11.2348 12.1054 10.9804 12.2929 10.7929C12.4804 10.6054 12.7348 10.5 13 10.5H17C17.2652 10.5 17.5196 10.6054 17.7071 10.7929C17.8946 10.9804 18 11.2348 18 11.5V25.5H20V5.5C20 5.23478 20.1054 4.98043 20.2929 4.79289C20.4804 4.60536 20.7348 4.5 21 4.5H26C26.2652 4.5 26.5196 4.60536 26.7071 4.79289C26.8946 4.98043 27 5.23478 27 5.5V25.5H28C28.2652 25.5 28.5196 25.6054 28.7071 25.7929C28.8946 25.9804 29 26.2348 29 26.5Z" fill="#CB3A31"/>
</svg>
