<svg width="32" height="32" viewBox="0 0 32 32" fill="none" xmlns="http://www.w3.org/2000/svg">
<path d="M28.7067 7.79315L24.7069 3.79328C24.614 3.7003 24.5037 3.62655 24.3823 3.57622C24.2609 3.5259 24.1308 3.5 23.9994 3.5C23.868 3.5 23.7378 3.5259 23.6164 3.57622C23.495 3.62655 23.3848 3.7003 23.2919 3.79328L11.2923 15.7929C11.1994 15.8858 11.1258 15.9961 11.0756 16.1175C11.0255 16.2389 10.9997 16.369 10.9998 16.5004V20.5003C10.9998 20.7655 11.1051 21.0198 11.2927 21.2073C11.4802 21.3949 11.7345 21.5002 11.9997 21.5002H15.9996C16.131 21.5003 16.2611 21.4745 16.3825 21.4244C16.5039 21.3742 16.6142 21.3006 16.7071 21.2077L28.7067 9.20811C28.7997 9.11524 28.8735 9.00495 28.9238 8.88356C28.9741 8.76216 29 8.63204 29 8.50063C29 8.36922 28.9741 8.2391 28.9238 8.1177C28.8735 7.99631 28.7997 7.88602 28.7067 7.79315ZM15.5859 19.5003H12.9997V16.9141L20.9995 8.91437L23.5856 11.5005L15.5859 19.5003ZM24.9993 10.0868L22.4132 7.50066L23.9994 5.91446L26.5855 8.50063L24.9993 10.0868ZM27.9992 16.5004V26.5001C27.9992 27.0305 27.7885 27.5392 27.4135 27.9142C27.0384 28.2893 26.5297 28.5 25.9993 28.5H5.99994C5.46952 28.5 4.96083 28.2893 4.58577 27.9142C4.21071 27.5392 4 27.0305 4 26.5001V6.50069C4 5.97028 4.21071 5.46158 4.58577 5.08652C4.96083 4.71146 5.46952 4.50076 5.99994 4.50076H15.9996C16.2648 4.50076 16.5192 4.60611 16.7067 4.79364C16.8942 4.98117 16.9996 5.23552 16.9996 5.50072C16.9996 5.76593 16.8942 6.02028 16.7067 6.20781C16.5192 6.39534 16.2648 6.50069 15.9996 6.50069H5.99994V26.5001H25.9993V16.5004C25.9993 16.2352 26.1047 15.9808 26.2922 15.7933C26.4797 15.6058 26.7341 15.5004 26.9993 15.5004C27.2645 15.5004 27.5188 15.6058 27.7064 15.7933C27.8939 15.9808 27.9992 16.2352 27.9992 16.5004Z" fill="#343330"/>
</svg>
