<svg width="32" height="33" viewBox="0 0 32 33" fill="none" xmlns="http://www.w3.org/2000/svg">
<path d="M28.2325 13.3525C27.7612 12.86 27.2738 12.3525 27.09 11.9062C26.92 11.4975 26.91 10.82 26.9 10.1637C26.8813 8.94375 26.8612 7.56125 25.9 6.6C24.9387 5.63875 23.5562 5.61875 22.3363 5.6C21.68 5.59 21.0025 5.58 20.5938 5.41C20.1488 5.22625 19.64 4.73875 19.1475 4.2675C18.285 3.43875 17.305 2.5 16 2.5C14.695 2.5 13.7162 3.43875 12.8525 4.2675C12.36 4.73875 11.8525 5.22625 11.4062 5.41C11 5.58 10.32 5.59 9.66375 5.6C8.44375 5.61875 7.06125 5.63875 6.1 6.6C5.13875 7.56125 5.125 8.94375 5.1 10.1637C5.09 10.82 5.08 11.4975 4.91 11.9062C4.72625 12.3512 4.23875 12.86 3.7675 13.3525C2.93875 14.215 2 15.195 2 16.5C2 17.805 2.93875 18.7837 3.7675 19.6475C4.23875 20.14 4.72625 20.6475 4.91 21.0938C5.08 21.5025 5.09 22.18 5.1 22.8363C5.11875 24.0562 5.13875 25.4387 6.1 26.4C7.06125 27.3612 8.44375 27.3813 9.66375 27.4C10.32 27.41 10.9975 27.42 11.4062 27.59C11.8512 27.7738 12.36 28.2612 12.8525 28.7325C13.715 29.5613 14.695 30.5 16 30.5C17.305 30.5 18.2837 29.5613 19.1475 28.7325C19.64 28.2612 20.1475 27.7738 20.5938 27.59C21.0025 27.42 21.68 27.41 22.3363 27.4C23.5562 27.3813 24.9387 27.3612 25.9 26.4C26.8612 25.4387 26.8813 24.0562 26.9 22.8363C26.91 22.18 26.92 21.5025 27.09 21.0938C27.2738 20.6488 27.7612 20.14 28.2325 19.6475C29.0613 18.785 30 17.805 30 16.5C30 15.195 29.0613 14.2162 28.2325 13.3525ZM21.7075 14.2075L14.7075 21.2075C14.6146 21.3005 14.5043 21.3742 14.3829 21.4246C14.2615 21.4749 14.1314 21.5008 14 21.5008C13.8686 21.5008 13.7385 21.4749 13.6171 21.4246C13.4957 21.3742 13.3854 21.3005 13.2925 21.2075L10.2925 18.2075C10.1049 18.0199 9.99944 17.7654 9.99944 17.5C9.99944 17.2346 10.1049 16.9801 10.2925 16.7925C10.4801 16.6049 10.7346 16.4994 11 16.4994C11.2654 16.4994 11.5199 16.6049 11.7075 16.7925L14 19.0863L20.2925 12.7925C20.3854 12.6996 20.4957 12.6259 20.6171 12.5756C20.7385 12.5253 20.8686 12.4994 21 12.4994C21.1314 12.4994 21.2615 12.5253 21.3829 12.5756C21.5043 12.6259 21.6146 12.6996 21.7075 12.7925C21.8004 12.8854 21.8741 12.9957 21.9244 13.1171C21.9747 13.2385 22.0006 13.3686 22.0006 13.5C22.0006 13.6314 21.9747 13.7615 21.9244 13.8829C21.8741 14.0043 21.8004 14.1146 21.7075 14.2075Z" fill="#CB3A31"/>
</svg>
