<svg width="20" height="21" viewBox="0 0 20 21" fill="none" xmlns="http://www.w3.org/2000/svg">
<path d="M5.00396 8.70312V3.625C5.00396 3.45924 4.93813 3.30027 4.82095 3.18306C4.70378 3.06585 4.54486 3 4.37915 3C4.21344 3 4.05451 3.06585 3.93734 3.18306C3.82016 3.30027 3.75434 3.45924 3.75434 3.625V8.70312C3.21674 8.84081 2.74024 9.15356 2.39997 9.59207C2.0597 10.0306 1.875 10.5699 1.875 11.125C1.875 11.6801 2.0597 12.2194 2.39997 12.6579C2.74024 13.0964 3.21674 13.4092 3.75434 13.5469V17.375C3.75434 17.5408 3.82016 17.6997 3.93734 17.8169C4.05451 17.9342 4.21344 18 4.37915 18C4.54486 18 4.70378 17.9342 4.82095 17.8169C4.93813 17.6997 5.00396 17.5408 5.00396 17.375V13.5469C5.54156 13.4092 6.01805 13.0964 6.35832 12.6579C6.6986 12.2194 6.88329 11.6801 6.88329 11.125C6.88329 10.5699 6.6986 10.0306 6.35832 9.59207C6.01805 9.15356 5.54156 8.84081 5.00396 8.70312ZM4.37915 12.375C4.13199 12.375 3.89039 12.3017 3.68489 12.1643C3.47939 12.027 3.31923 11.8318 3.22465 11.6034C3.13006 11.3749 3.10532 11.1236 3.15353 10.8811C3.20175 10.6387 3.32077 10.4159 3.49553 10.2411C3.67029 10.0663 3.89295 9.94725 4.13536 9.89902C4.37776 9.85079 4.62902 9.87554 4.85736 9.97015C5.0857 10.0648 5.28086 10.225 5.41817 10.4305C5.55548 10.6361 5.62877 10.8778 5.62877 11.125C5.62877 11.4565 5.49711 11.7745 5.26276 12.0089C5.02841 12.2433 4.71057 12.375 4.37915 12.375ZM10.6273 4.95312V3.625C10.6273 3.45924 10.5614 3.30027 10.4443 3.18306C10.3271 3.06585 10.1682 3 10.0025 3C9.83674 3 9.67782 3.06585 9.56064 3.18306C9.44347 3.30027 9.37764 3.45924 9.37764 3.625V4.95312C8.84004 5.09081 8.36355 5.40356 8.02327 5.84207C7.683 6.28057 7.4983 6.81989 7.4983 7.375C7.4983 7.93011 7.683 8.46943 8.02327 8.90793C8.36355 9.34644 8.84004 9.65919 9.37764 9.79688V17.375C9.37764 17.5408 9.44347 17.6997 9.56064 17.8169C9.67782 17.9342 9.83674 18 10.0025 18C10.1682 18 10.3271 17.9342 10.4443 17.8169C10.5614 17.6997 10.6273 17.5408 10.6273 17.375V9.79688C11.1649 9.65919 11.6414 9.34644 11.9816 8.90793C12.3219 8.46943 12.5066 7.93011 12.5066 7.375C12.5066 6.81989 12.3219 6.28057 11.9816 5.84207C11.6414 5.40356 11.1649 5.09081 10.6273 4.95312ZM10.0025 8.625C9.7553 8.625 9.5137 8.55169 9.3082 8.41434C9.1027 8.27699 8.94253 8.08176 8.84795 7.85335C8.75337 7.62495 8.72862 7.37361 8.77684 7.13114C8.82506 6.88866 8.94407 6.66593 9.11883 6.49112C9.2936 6.3163 9.51626 6.19725 9.75866 6.14902C10.0011 6.10079 10.2523 6.12554 10.4807 6.22015C10.709 6.31476 10.9042 6.47498 11.0415 6.68054C11.1788 6.8861 11.2521 7.12777 11.2521 7.375C11.2521 7.70652 11.1204 8.02446 10.8861 8.25888C10.6517 8.4933 10.3339 8.625 10.0025 8.625ZM18.125 13.625C18.1245 13.0707 17.9402 12.5323 17.601 12.0941C17.2618 11.6558 16.7869 11.3425 16.2506 11.2031V3.625C16.2506 3.45924 16.1847 3.30027 16.0676 3.18306C15.9504 3.06585 15.7915 3 15.6258 3C15.46 3 15.3011 3.06585 15.1839 3.18306C15.0668 3.30027 15.0009 3.45924 15.0009 3.625V11.2031C14.4633 11.3408 13.9869 11.6536 13.6466 12.0921C13.3063 12.5306 13.1216 13.0699 13.1216 13.625C13.1216 14.1801 13.3063 14.7194 13.6466 15.1579C13.9869 15.5964 14.4633 15.9092 15.0009 16.0469V17.375C15.0009 17.5408 15.0668 17.6997 15.1839 17.8169C15.3011 17.9342 15.46 18 15.6258 18C15.7915 18 15.9504 17.9342 16.0676 17.8169C16.1847 17.6997 16.2506 17.5408 16.2506 17.375V16.0469C16.7869 15.9075 17.2618 15.5942 17.601 15.1559C17.9402 14.7177 18.1245 14.1793 18.125 13.625ZM15.6258 14.875C15.3786 14.875 15.137 14.8017 14.9315 14.6643C14.726 14.527 14.5658 14.3318 14.4713 14.1034C14.3767 13.8749 14.3519 13.6236 14.4001 13.3811C14.4484 13.1387 14.5674 12.9159 14.7421 12.7411C14.9169 12.5663 15.1396 12.4472 15.382 12.399C15.6244 12.3508 15.8756 12.3755 16.104 12.4702C16.3323 12.5648 16.5275 12.725 16.6648 12.9305C16.8021 13.1361 16.8754 13.3778 16.8754 13.625C16.8754 13.9565 16.7437 14.2745 16.5094 14.5089C16.275 14.7433 15.9572 14.875 15.6258 14.875Z" fill="#202939"/>
</svg>
