<svg width="20" height="20" viewBox="0 0 20 20" fill="none" xmlns="http://www.w3.org/2000/svg">
<path d="M16.875 4.375H13.75V3.75C13.75 3.25272 13.5525 2.77581 13.2008 2.42417C12.8492 2.07254 12.3723 1.875 11.875 1.875H8.125C7.62772 1.875 7.15081 2.07254 6.79917 2.42417C6.44754 2.77581 6.25 3.25272 6.25 3.75V4.375H3.125C2.95924 4.375 2.80027 4.44085 2.68306 4.55806C2.56585 4.67527 2.5 4.83424 2.5 5C2.5 5.16576 2.56585 5.32473 2.68306 5.44194C2.80027 5.55915 2.95924 5.625 3.125 5.625H3.75V16.875C3.75 17.2065 3.8817 17.5245 4.11612 17.7589C4.35054 17.9933 4.66848 18.125 5 18.125H15C15.3315 18.125 15.6495 17.9933 15.8839 17.7589C16.1183 17.5245 16.25 17.2065 16.25 16.875V5.625H16.875C17.0408 5.625 17.1997 5.55915 17.3169 5.44194C17.4342 5.32473 17.5 5.16576 17.5 5C17.5 4.83424 17.4342 4.67527 17.3169 4.55806C17.1997 4.44085 17.0408 4.375 16.875 4.375ZM7.5 3.75C7.5 3.58424 7.56585 3.42527 7.68306 3.30806C7.80027 3.19085 7.95924 3.125 8.125 3.125H11.875C12.0408 3.125 12.1997 3.19085 12.3169 3.30806C12.4342 3.42527 12.5 3.58424 12.5 3.75V4.375H7.5V3.75ZM15 16.875H5V5.625H15V16.875ZM8.75 8.75V13.75C8.75 13.9158 8.68415 14.0747 8.56694 14.1919C8.44973 14.3092 8.29076 14.375 8.125 14.375C7.95924 14.375 7.80027 14.3092 7.68306 14.1919C7.56585 14.0747 7.5 13.9158 7.5 13.75V8.75C7.5 8.58424 7.56585 8.42527 7.68306 8.30806C7.80027 8.19085 7.95924 8.125 8.125 8.125C8.29076 8.125 8.44973 8.19085 8.56694 8.30806C8.68415 8.42527 8.75 8.58424 8.75 8.75ZM12.5 8.75V13.75C12.5 13.9158 12.4342 14.0747 12.3169 14.1919C12.1997 14.3092 12.0408 14.375 11.875 14.375C11.7092 14.375 11.5503 14.3092 11.4331 14.1919C11.3158 14.0747 11.25 13.9158 11.25 13.75V8.75C11.25 8.58424 11.3158 8.42527 11.4331 8.30806C11.5503 8.19085 11.7092 8.125 11.875 8.125C12.0408 8.125 12.1997 8.19085 12.3169 8.30806C12.4342 8.42527 12.5 8.58424 12.5 8.75Z" fill="#343330"/>
</svg>
