<svg width="20" height="21" viewBox="0 0 20 21" fill="none" xmlns="http://www.w3.org/2000/svg">
<path d="M16.25 3H3.75C3.41848 3 3.10054 3.1317 2.86612 3.36612C2.6317 3.60054 2.5 3.91848 2.5 4.25V16.75C2.5 17.0815 2.6317 17.3995 2.86612 17.6339C3.10054 17.8683 3.41848 18 3.75 18H16.25C16.5815 18 16.8995 17.8683 17.1339 17.6339C17.3683 17.3995 17.5 17.0815 17.5 16.75V4.25C17.5 3.91848 17.3683 3.60054 17.1339 3.36612C16.8995 3.1317 16.5815 3 16.25 3ZM16.25 4.25V12.375H14.0078C13.8437 12.3746 13.6812 12.4068 13.5297 12.4697C13.3781 12.5325 13.2406 12.6249 13.125 12.7414L11.6164 14.25H8.38359L6.875 12.7414C6.75935 12.6248 6.62168 12.5324 6.46999 12.4695C6.3183 12.4066 6.15562 12.3745 5.99141 12.375H3.75V4.25H16.25ZM16.25 16.75H3.75V13.625H5.99141L7.5 15.1336C7.61565 15.2502 7.75332 15.3426 7.90501 15.4055C8.0567 15.4684 8.21938 15.5005 8.38359 15.5H11.6164C11.7806 15.5005 11.9433 15.4684 12.095 15.4055C12.2467 15.3426 12.3843 15.2502 12.5 15.1336L14.0086 13.625H16.25V16.75ZM7.05781 9.06719C6.9997 9.00914 6.9536 8.94021 6.92215 8.86434C6.8907 8.78846 6.87451 8.70713 6.87451 8.625C6.87451 8.54287 6.8907 8.46154 6.92215 8.38566C6.9536 8.30979 6.9997 8.24086 7.05781 8.18281L9.55781 5.68281C9.61586 5.6247 9.68479 5.5786 9.76066 5.54715C9.83654 5.5157 9.91787 5.49951 10 5.49951C10.0821 5.49951 10.1635 5.5157 10.2393 5.54715C10.3152 5.5786 10.3841 5.6247 10.4422 5.68281L12.9422 8.18281C13.0003 8.24088 13.0463 8.30982 13.0777 8.38569C13.1092 8.46156 13.1253 8.54288 13.1253 8.625C13.1253 8.70712 13.1092 8.78844 13.0777 8.86431C13.0463 8.94018 13.0003 9.00912 12.9422 9.06719C12.8841 9.12526 12.8152 9.17132 12.7393 9.20275C12.6634 9.23417 12.5821 9.25035 12.5 9.25035C12.4179 9.25035 12.3366 9.23417 12.2607 9.20275C12.1848 9.17132 12.1159 9.12526 12.0578 9.06719L10.625 7.63359V12.375C10.625 12.5408 10.5592 12.6997 10.4419 12.8169C10.3247 12.9342 10.1658 13 10 13C9.83424 13 9.67527 12.9342 9.55806 12.8169C9.44085 12.6997 9.375 12.5408 9.375 12.375V7.63359L7.94219 9.06719C7.88414 9.1253 7.81521 9.1714 7.73934 9.20285C7.66346 9.2343 7.58213 9.25049 7.5 9.25049C7.41787 9.25049 7.33654 9.2343 7.26066 9.20285C7.18479 9.1714 7.11586 9.1253 7.05781 9.06719Z" fill="black"/>
</svg>
