<svg width="20" height="21" viewBox="0 0 20 21" fill="none" xmlns="http://www.w3.org/2000/svg">
<path d="M17.5 12.375V16.75C17.5 17.0815 17.3683 17.3995 17.1339 17.6339C16.8995 17.8683 16.5815 18 16.25 18H3.75C3.41848 18 3.10054 17.8683 2.86612 17.6339C2.6317 17.3995 2.5 17.0815 2.5 16.75V12.375C2.5 12.2092 2.56585 12.0503 2.68306 11.9331C2.80027 11.8159 2.95924 11.75 3.125 11.75C3.29076 11.75 3.44973 11.8159 3.56694 11.9331C3.68415 12.0503 3.75 12.2092 3.75 12.375V16.75H16.25V12.375C16.25 12.2092 16.3158 12.0503 16.4331 11.9331C16.5503 11.8159 16.7092 11.75 16.875 11.75C17.0408 11.75 17.1997 11.8159 17.3169 11.9331C17.4342 12.0503 17.5 12.2092 17.5 12.375ZM7.31719 7.19219L9.375 5.1336V12.375C9.375 12.5408 9.44085 12.6997 9.55806 12.8169C9.67527 12.9342 9.83424 13 10 13C10.1658 13 10.3247 12.9342 10.4419 12.8169C10.5592 12.6997 10.625 12.5408 10.625 12.375V5.1336L12.6828 7.19219C12.8001 7.30947 12.9591 7.37535 13.125 7.37535C13.2909 7.37535 13.4499 7.30947 13.5672 7.19219C13.6845 7.07492 13.7503 6.91586 13.7503 6.75C13.7503 6.58415 13.6845 6.42509 13.5672 6.30782L10.4422 3.18282C10.3841 3.12471 10.3152 3.07861 10.2393 3.04715C10.1635 3.0157 10.0821 2.99951 10 2.99951C9.91787 2.99951 9.83654 3.0157 9.76066 3.04715C9.68479 3.07861 9.61586 3.12471 9.55781 3.18282L6.43281 6.30782C6.31554 6.42509 6.24965 6.58415 6.24965 6.75C6.24965 6.91586 6.31554 7.07492 6.43281 7.19219C6.55009 7.30947 6.70915 7.37535 6.875 7.37535C7.04085 7.37535 7.19991 7.30947 7.31719 7.19219Z" fill="black"/>
</svg>
