<svg width="32" height="33" viewBox="0 0 32 33" fill="none" xmlns="http://www.w3.org/2000/svg">
<path d="M28.4137 10.5288L21.9713 4.08625C21.5951 3.71232 21.0867 3.50169 20.5562 3.5H11.4438C10.9133 3.50169 10.4049 3.71232 10.0288 4.08625L3.58625 10.5288C3.21232 10.9049 3.00169 11.4133 3 11.9438V21.0562C3.00169 21.5867 3.21232 22.0951 3.58625 22.4713L10.0288 28.9137C10.4049 29.2877 10.9133 29.4983 11.4438 29.5H20.5562C21.0867 29.4983 21.5951 29.2877 21.9713 28.9137L28.4137 22.4713C28.7877 22.0951 28.9983 21.5867 29 21.0562V11.9438C28.9983 11.4133 28.7877 10.9049 28.4137 10.5288ZM15 10.5C15 10.2348 15.1054 9.98043 15.2929 9.79289C15.4804 9.60536 15.7348 9.5 16 9.5C16.2652 9.5 16.5196 9.60536 16.7071 9.79289C16.8946 9.98043 17 10.2348 17 10.5V17.5C17 17.7652 16.8946 18.0196 16.7071 18.2071C16.5196 18.3946 16.2652 18.5 16 18.5C15.7348 18.5 15.4804 18.3946 15.2929 18.2071C15.1054 18.0196 15 17.7652 15 17.5V10.5ZM16 23.5C15.7033 23.5 15.4133 23.412 15.1666 23.2472C14.92 23.0824 14.7277 22.8481 14.6142 22.574C14.5006 22.2999 14.4709 21.9983 14.5288 21.7074C14.5867 21.4164 14.7296 21.1491 14.9393 20.9393C15.1491 20.7296 15.4164 20.5867 15.7074 20.5288C15.9983 20.4709 16.2999 20.5007 16.574 20.6142C16.8481 20.7277 17.0824 20.92 17.2472 21.1666C17.412 21.4133 17.5 21.7033 17.5 22C17.5 22.3978 17.342 22.7794 17.0607 23.0607C16.7794 23.342 16.3978 23.5 16 23.5Z" fill="#CB3A31"/>
</svg>
